<svg width="18" height="18" viewBox="0 0 18 18" fill="none" xmlns="http://www.w3.org/2000/svg">
<g clip-path="url(#clip0_196_7842)">
<path d="M9.68664 1.7178C9.58709 1.61836 9.45215 1.56247 9.31145 1.56241L3.15625 1.56241L3.15625 7.7176C3.15631 7.85831 3.2122 7.99325 3.31164 8.0928L9.90711 14.6883C10.0067 14.7878 10.1418 14.8437 10.2826 14.8437C10.4235 14.8437 10.5585 14.7878 10.6582 14.6883L16.2821 9.06632C16.3817 8.9667 16.4376 8.83162 16.4376 8.69079C16.4376 8.54995 16.3817 8.41488 16.2821 8.31526L9.68664 1.7178Z" stroke="white" stroke-width="1.5" stroke-linecap="round" stroke-linejoin="round"/>
<path d="M6.875 4.48428C6.875 4.92439 6.51823 5.28116 6.07812 5.28116C5.63802 5.28116 5.28125 4.92439 5.28125 4.48428C5.28125 4.04418 5.63802 3.68741 6.07812 3.68741C6.51823 3.68741 6.875 4.04418 6.875 4.48428Z" fill="white"/>
</g>
<defs>
<clipPath id="clip0_196_7842">
<rect width="17" height="17" fill="white" transform="matrix(1 0 0 -1 0.5 17.5)"/>
</clipPath>
</defs>
</svg>
