<svg width="17" height="23" viewBox="0 0 17 23" fill="none" xmlns="http://www.w3.org/2000/svg">
<path d="M2.84304 23H0.877486V20.6829C0.877486 19.9318 0.925426 19.4045 1.00533 19.1009C1.08523 18.7813 1.32493 18.3977 1.72443 17.9343L7.09375 11.6062L1.69247 5.26207C1.30895 4.79865 1.06925 4.41513 0.989347 4.11151C0.909446 3.7919 0.877486 3.26456 0.877486 2.54545V0.0845175H2.84304V3.29652L8.5 9.97621L14.157 3.29652V0.0845175H16.1225V2.54545C16.1225 3.26456 16.0746 3.7919 15.9947 4.11151C15.9148 4.41513 15.6911 4.79865 15.3075 5.26207L9.90625 11.6062L15.2756 17.9343C15.6751 18.3977 15.9148 18.7813 15.9947 19.1009C16.0746 19.4045 16.1225 19.9318 16.1225 20.6829V23H14.157V19.9158L8.5 13.2841L2.84304 19.9158V23Z" fill="white"/>
</svg>
